<svg xmlns="http://www.w3.org/2000/svg"
 width="1024.000000" height="1024.000000" viewBox="0 0 1024.000000 1024.000000"
 preserveAspectRatio="xMidYMid meet">
<g transform="translate(0.000000,1024.000000) scale(0.100000,-0.100000)" fill="#0F52BA" stroke="none">
<path d="M2565 8068 c-253 -435 -461 -797 -463 -804 -3 -12 55 -14 335 -14
l339 0 224 400 225 399 413 1 412 0 0 -270 0 -270 -253 0 -253 0 -225 -392
-225 -393 -658 -5 -657 -5 -464 -798 -464 -797 232 -400 231 -400 754 -2 753
-3 158 -265 157 -265 457 -3 457 -2 0 -260 0 -260 -607 0 -608 0 -158 265
-157 265 -445 0 c-245 0 -445 -3 -445 -6 0 -4 314 -546 697 -1205 l698 -1198
918 -1 917 0 0 405 0 405 -576 2 -577 3 -148 255 c-82 140 -149 258 -149 263
0 4 326 7 725 7 l725 0 0 935 0 935 -642 0 -643 0 -223 400 -224 400 -593 2
-593 3 151 263 151 262 595 0 596 -1 222 -397 221 -397 491 -3 491 -2 0 535 0
535 -525 2 -524 3 152 262 152 263 373 0 372 0 0 1070 0 1070 -917 0 -918 -1
-460 -791z"/>
<path d="M5380 7790 l0 -1070 373 0 372 0 152 -263 152 -262 -525 -3 -524 -2
0 -535 0 -535 491 2 491 3 221 397 222 397 595 1 596 0 151 -262 151 -263
-593 -3 -593 -2 -224 -400 -223 -400 -642 0 -643 0 0 -935 0 -935 725 0 c399
0 725 -3 725 -7 0 -5 -67 -123 -149 -263 l-149 -255 -576 -3 -576 -2 0 -405 0
-405 918 0 917 0 698 1198 c383 659 697 1201 697 1205 0 4 -200 7 -445 7
l-444 0 -158 -265 -158 -264 -607 -1 -608 0 0 260 0 260 457 2 457 3 159 267
159 268 752 0 752 0 232 400 232 400 -464 797 -465 798 -657 5 -657 5 -226
393 -226 392 -252 0 -253 0 0 270 0 270 413 0 412 -1 224 -399 225 -400 339 0
c283 0 338 2 335 14 -2 7 -210 370 -463 805 l-460 791 -917 0 -918 0 0 -1070z"/>
</g>
</svg>
