<svg xmlns="http://www.w3.org/2000/svg"
 width="200.000000" height="200.000000" viewBox="0 0 200.000000 200.000000"
 preserveAspectRatio="xMidYMid meet">
<g transform="translate(0.000000,200.000000) scale(0.100000,-0.100000)"
fill="#a5b4fc" stroke="none">
<path d="M652 1731 c-7 -4 -20 -38 -29 -75 -10 -44 -21 -69 -31 -73 -10 -3
-42 -17 -74 -30 l-56 -25 -53 36 c-30 20 -61 36 -70 36 -24 0 -182 -167 -173
-182 4 -7 22 -35 39 -63 l31 -50 -31 -74 -31 -75 -70 -15 -69 -16 -3 -119 c-2
-73 1 -123 8 -131 6 -7 40 -18 75 -25 36 -7 65 -17 65 -24 0 -6 13 -39 30 -74
l30 -64 -29 -41 c-60 -89 -62 -78 30 -173 45 -46 89 -84 96 -84 8 0 39 16 70
36 l56 35 59 -25 c33 -14 65 -26 73 -26 14 0 16 -5 35 -88 7 -32 19 -56 30
-62 30 -16 216 -13 233 4 8 8 20 42 26 76 8 41 18 63 29 67 9 3 43 17 74 30
l57 25 59 -36 c33 -20 64 -36 69 -36 12 0 163 153 163 166 0 5 -17 27 -38 47
l-38 37 -149 0 c-114 0 -152 3 -164 14 -14 12 -26 11 -91 -11 -62 -21 -87 -24
-143 -20 -135 11 -254 93 -314 215 -25 51 -28 68 -28 157 0 93 2 105 32 166
39 79 102 140 181 177 50 24 70 27 157 27 81 0 108 -4 140 -21 40 -20 42 -20
70 -2 25 15 53 18 170 18 l141 0 39 40 39 40 -79 80 c-44 44 -85 80 -92 80 -8
0 -37 -16 -66 -35 l-52 -35 -60 24 c-33 13 -67 26 -76 29 -10 3 -21 28 -29 69
-7 34 -17 69 -23 76 -11 14 -223 17 -245 3z"/>
<path d="M1773 1580 c-18 -10 -39 -33 -48 -50 l-16 -30 -92 0 -92 0 -100 -100
-100 -100 -151 0 c-123 0 -154 -3 -164 -15 -10 -12 -10 -18 0 -30 10 -12 43
-15 174 -15 l161 0 100 100 100 100 82 0 c82 0 83 0 98 -30 52 -100 198 -88
235 18 13 37 13 47 0 84 -28 79 -117 111 -187 68z"/>
<path d="M1673 1110 c-18 -10 -39 -33 -48 -49 l-15 -31 -243 -2 -242 -3 0 -25
0 -25 242 -3 243 -2 15 -31 c52 -99 198 -87 235 19 13 37 13 47 0 84 -28 79
-117 111 -187 68z"/>
<path d="M1010 745 c-7 -8 -10 -22 -6 -30 4 -12 31 -15 158 -15 l153 0 100
-100 100 -100 95 0 95 0 18 -33 c23 -42 64 -67 112 -67 99 0 158 91 117 183
-24 54 -75 82 -135 74 -41 -6 -92 -45 -103 -79 -5 -15 -17 -18 -87 -18 l-82 0
-100 100 -100 100 -161 0 c-131 0 -164 -3 -174 -15z"/>
</g>
</svg>
