<svg xmlns="http://www.w3.org/2000/svg" viewBox="0 0 512 512">
  <rect width="512" height="512" rx="96" fill="#142849"/>
  <g transform="translate(72 96.7) scale(0.09426)">
    <path fill="#fff" d="M3904,3379.96l-1953.37-614.82L0,3379.96l1507.93-1383.04L1946.66,16.66l9.29-16.66,442.33,1995.71,1505.7,1384.25ZM2120.63,1879.39L1959.98,90.02l-7.93-53.99-168.82,1843.2c-125.13,53.5-228.34,189.67-239.17,326.83-1.51,19.1,4.52,81.65-4.09,91.91L32.02,3359.96l1678.05-772.27c44.36,24.24,85.06,48.51,134.8,61.44,108.54,28.22,204.01,14.13,303.22-35.04,17.15-8.5,36.89-29.62,55.95-24.35l1667.93,770.23-1511.26-1064.72c20.11-172.37-79.84-348.94-240.08-415.86Z"/>
    <path fill="#fff" d="M1781.4,2422.6c-212.47-214.36,91.23-547.83,322.65-356.65,260.72,215.38-90.31,591.06-322.65,356.65Z"/>
  </g>
</svg>
