<?xml version="1.0" encoding="UTF-8"?><svg id="Layer_1" xmlns="http://www.w3.org/2000/svg" viewBox="0 0 1240.37 1240.21"><path d="M962.08,762.91c-3.6,3.81-23,22.39-23.4,25.12s1.65,9.46,1.81,12.8c6.2,134.27-22.47,251.36-96.57,363.41-10.14,15.32-44.07,64.4-57.7,72.3-10.64,6.16-17.08,4.1-26.74-2.68l-205.91-206.08-2.61-1.47c-13.79,3.14-27.33,7.97-41.2,10.78-12.14,2.46-39.23,7.32-50.52,5.02-5.43-1.11-8.8-8.83-13.02-7.63-56.83,48.42-130.21,76.33-203.49,88.59-23.32,3.9-79.67,11.72-100.43,4.99-28.92-9.37-32.15-31.74-31.74-58.17,1.36-87.99,28.47-185.28,80.14-256.85,2.24-3.1,15.39-18.18,15.71-19.38.7-2.69-7.89-8.08-8.8-14.88-1.33-9.98,3.07-34.86,5.18-45.64,2.91-14.86,7.64-29.47,11.6-44.06L6.97,481.35c-6.58-10.16-9.77-14.46-3.86-25.92,4.89-9.48,28.96-27.24,38.49-34.51,113.03-86.2,243.65-127.64,386.44-121.64,5.01.21,23.34,2.94,26.44,1.52,117.49-117.68,260.78-215.29,420.81-265.18,95.99-29.93,217.05-45.19,316.54-29.13,13.03,2.1,32.43,2.67,37.16,16.84,5.97,17.89,9.64,56.02,10.55,75.45,12,255.12-107.2,483.74-277.46,664.12ZM842.3,261.63c-101.28,8.13-152.88,125.4-90.22,205.62,56.08,71.8,169.37,61.28,211.94-18.9,46.73-88.01-22.45-194.69-121.72-186.72ZM276.84,862.98c-1.02-.92-3.11-5.35-5.37-4.22-.87.43-8.43,11.31-9.79,13.25-32.97,47.21-49,105.67-56.19,162.31,1.77,1.77,42.17-6.13,48.04-7.46,31.2-7.03,64.74-18.77,92.63-34.37,4.52-2.53,34.5-21.3,35.27-23.8.34-1.12-.09-2.12-.89-2.92-35.52-32.96-67.86-70.35-103.71-102.79Z"/></svg>